<?xml version="1.0" standalone="no"?>
<!DOCTYPE svg PUBLIC "-//W3C//DTD SVG 20010904//EN"
 "http://www.w3.org/TR/2001/REC-SVG-20010904/DTD/svg10.dtd">
<svg version="1.0" xmlns="http://www.w3.org/2000/svg"
 width="265.000000pt" height="300.000000pt" viewBox="0 0 265.000000 300.000000"
 preserveAspectRatio="xMidYMid meet">
<metadata>
Created by potrace 1.10, written by Peter Selinger 2001-2011
</metadata>
<g transform="translate(0.000000,300.000000) scale(0.050000,-0.050000)"
fill="#8b4513" stroke="none">
<path d="M2225 5900 c-57 -20 -129 -50 -160 -66 -145 -75 -236 -125 -245 -134
-5 -5 -41 -27 -80 -48 -38 -21 -88 -53 -110 -72 -22 -19 -54 -39 -71 -45 -173
-60 -616 -464 -728 -665 -38 -66 -131 -190 -207 -275 -77 -85 -150 -184 -164
-220 -39 -105 -64 -152 -103 -194 -73 -78 -135 -184 -124 -212 20 -51 65 -31
117 51 28 44 64 80 80 80 51 0 33 -80 -40 -180 -39 -52 -70 -105 -70 -116 0
-11 -8 -24 -17 -27 -38 -15 -164 -317 -263 -628 -37 -116 -14 -221 32 -146 24
38 46 -29 60 -178 9 -95 6 -144 -9 -153 -14 -9 -23 -78 -23 -179 0 -91 -9
-174 -19 -184 -28 -28 -45 -175 -24 -207 38 -56 87 23 153 243 18 63 42 115
52 115 36 0 19 -271 -24 -392 -40 -110 -89 -591 -64 -633 43 -74 126 44 126
178 0 57 9 129 21 159 11 29 25 103 30 164 11 118 20 144 50 144 59 0 7 -510
-66 -656 -17 -35 -17 -68 1 -135 13 -49 24 -170 24 -269 0 -168 3 -180 41
-180 22 0 45 14 52 30 6 17 19 30 29 30 40 0 13 -106 -72 -287 -103 -219 -100
-205 -59 -221 56 -21 103 24 198 188 93 162 128 185 130 84 12 -567 16 -589
99 -545 23 12 45 42 50 67 5 24 19 98 32 164 13 66 33 165 43 220 11 55 28
128 39 161 10 34 18 86 18 116 0 87 56 205 84 177 30 -30 29 -333 -2 -410 -24
-61 -26 -254 -4 -334 29 -104 142 -63 142 51 0 37 8 72 18 78 10 6 24 55 32
109 42 308 118 138 114 -254 l-2 -207 52 7 c58 7 64 15 128 186 49 128 129
265 178 304 26 20 31 0 40 -150 10 -171 11 -174 64 -180 74 -9 91 33 103 257
18 336 71 559 134 559 59 0 64 35 6 49 -60 15 -68 9 -121 -90 -20 -40 -48 -68
-62 -64 -24 8 -32 -15 -25 -78 1 -17 -12 -38 -29 -44 -18 -7 -27 -22 -20 -33
7 -11 20 -16 28 -11 8 5 15 -3 15 -19 0 -43 -101 -78 -150 -52 -27 15 -45 15
-53 2 -7 -11 -6 -20 2 -20 7 0 -9 -18 -37 -40 -78 -61 -187 -22 -191 68 -1 32
-51 49 -118 41 -59 -8 -66 -4 -66 41 0 40 10 50 50 50 28 0 50 8 50 18 0 27
-52 42 -73 21 -11 -11 -20 -1 -22 25 -2 24 -17 51 -34 61 -17 9 -31 32 -30 51
0 30 4 29 30 -5 25 -33 29 -34 29 -6 0 36 -66 82 -87 61 -7 -7 -26 19 -42 56
-16 37 -30 57 -30 43 -1 -14 -20 -25 -44 -25 -23 0 -68 -26 -98 -58 -31 -32
-61 -53 -67 -47 -7 6 -12 -3 -12 -22 0 -18 -10 -33 -21 -33 -12 0 -16 -9 -9
-20 7 -11 2 -20 -10 -20 -12 0 -17 -8 -11 -18 6 -10 -4 -24 -22 -31 -26 -9
-28 -18 -10 -36 32 -32 29 -65 -4 -38 -15 13 -32 17 -38 11 -14 -14 -115 199
-115 241 0 15 -10 31 -22 35 -29 10 -42 182 -19 244 12 31 10 63 -6 94 -26 51
-22 118 7 118 9 0 22 -11 28 -25 7 -14 8 2 2 35 -6 33 -11 119 -12 190 -2 72
-11 135 -21 142 -10 6 -20 39 -23 73 -2 33 -10 57 -17 53 -19 -12 -57 108 -57
180 0 85 -37 212 -62 212 -12 0 -15 17 -8 39 8 27 -1 45 -30 61 -28 15 -37 31
-25 46 19 27 16 256 -5 334 -7 28 -14 61 -15 75 -1 18 -9 19 -28 2 -21 -17
-27 -12 -27 27 0 26 -10 58 -22 70 -27 27 13 167 55 192 18 11 23 34 14 68 -8
34 -6 47 8 39 12 -7 27 11 34 42 8 30 22 60 32 66 10 6 20 40 23 75 3 46 13
62 33 54 19 -7 25 1 18 27 -6 23 5 49 27 65 25 17 30 31 15 40 -15 9 -8 29 20
60 24 25 43 62 43 81 0 20 11 32 25 26 30 -11 69 66 59 116 -4 19 -19 35 -33
35 -29 0 -52 44 -49 97 1 20 5 24 11 8 14 -33 47 -32 47 2 0 63 125 265 189
307 70 46 205 287 193 345 -4 23 0 24 24 5 23 -19 34 -18 54 6 14 16 19 30 12
30 -7 0 -4 18 8 40 12 22 34 40 50 40 17 0 24 12 17 30 -7 19 7 36 40 49 28
11 65 47 83 80 32 62 69 81 71 36 0 -17 8 -16 25 5 13 17 42 30 64 30 26 0 42
15 46 43 4 24 20 49 36 55 20 8 25 3 15 -13 -9 -14 13 -2 48 25 34 28 63 57
64 66 3 47 80 99 110 75 26 -22 31 -20 31 13 0 43 72 113 125 122 19 3 35 -4
35 -16 0 -12 23 1 51 29 28 28 59 51 70 51 36 0 49 4 89 26 22 13 49 23 60 24
11 1 19 10 17 21 -2 10 25 20 60 22 111 5 169 17 160 32 -5 8 0 15 12 15 11 0
22 -16 23 -35 0 -19 5 -25 10 -13 7 16 32 16 90 1 64 -18 84 -16 97 6 19 29
166 38 273 15 34 -7 95 -18 135 -23 41 -5 85 -16 99 -25 13 -8 47 -18 74 -22
28 -3 72 -21 98 -38 27 -17 83 -34 124 -37 102 -8 161 -28 147 -51 -7 -10 -5
-17 5 -15 26 8 106 -24 106 -42 0 -9 28 -12 62 -8 54 6 61 1 52 -33 -6 -22 -2
-40 8 -40 10 0 18 14 18 30 0 17 17 30 38 30 21 0 43 -13 49 -30 7 -16 22 -30
35 -30 13 0 44 -22 70 -50 25 -27 52 -50 59 -50 7 0 36 -18 64 -40 28 -22 44
-40 37 -40 -7 0 -3 -19 9 -42 16 -30 16 -39 1 -29 -12 7 -22 2 -22 -13 0 -14
29 -39 64 -55 36 -15 54 -32 41 -36 -12 -4 -18 -20 -13 -34 6 -15 1 -33 -11
-40 -27 -17 -28 -211 0 -211 13 0 14 -13 3 -35 -10 -19 -15 -111 -11 -205 13
-330 10 -404 -19 -386 -13 8 -16 -11 -8 -49 10 -50 4 -67 -35 -92 -26 -17 -46
-43 -46 -57 3 -69 -7 -97 -28 -84 -16 10 -18 5 -6 -14 9 -15 19 -41 20 -58 2
-16 7 -62 10 -102 5 -45 -5 -92 -27 -124 -19 -29 -34 -60 -34 -69 0 -9 -18
-16 -40 -16 -25 0 -40 13 -40 34 0 76 -61 46 -68 -33 -1 -11 -18 -20 -37 -20
-62 -1 -109 -125 -113 -300 -5 -148 -25 -203 -66 -177 -9 5 -16 -23 -16 -62 0
-50 9 -71 30 -71 17 0 30 -9 30 -21 0 -14 -12 -14 -39 0 -27 15 -43 15 -52 -1
-7 -12 -30 -17 -51 -12 -24 7 -38 0 -38 -19 0 -15 -14 -34 -31 -40 -17 -7 -27
-25 -21 -40 6 -15 1 -27 -11 -27 -12 0 -16 -14 -9 -31 6 -17 3 -26 -7 -20 -10
7 -17 -6 -16 -29 2 -22 9 -40 16 -40 27 0 7 -92 -26 -116 -39 -29 -47 -67 -13
-59 13 3 28 -8 33 -23 8 -20 -1 -25 -31 -17 -42 11 -42 7 -42 -364 1 -205 -5
-407 -13 -448 -15 -81 15 -138 62 -120 18 7 29 40 29 87 0 42 18 119 40 171
33 77 37 107 20 166 -32 117 -24 257 21 349 33 67 40 118 38 254 -5 196 16
340 49 340 67 -1 82 -40 87 -222 2 -103 14 -195 27 -211 16 -18 20 -74 12
-164 -12 -149 1 -191 58 -180 80 16 144 340 95 483 -14 42 -27 177 -28 310 -2
129 -5 306 -8 394 -6 185 -1 208 56 229 63 23 170 -370 115 -425 -34 -34 -26
-153 18 -274 22 -60 40 -152 40 -205 0 -81 6 -95 39 -95 58 0 87 72 83 204 -2
64 11 166 29 228 33 113 6 292 -54 357 -25 28 -21 207 7 257 14 27 23 119 21
232 -2 162 4 200 43 270 74 133 136 466 110 588 -81 374 -84 444 -21 444 90
-1 181 -143 186 -289 2 -67 11 -105 23 -97 19 11 13 -29 -17 -127 -8 -24 -2
-21 16 9 15 25 33 39 41 31 7 -7 4 -25 -7 -38 -15 -18 -14 -30 3 -40 16 -10
19 -6 9 13 -9 15 7 1 35 -32 28 -33 45 -69 38 -80 -7 -11 -15 -42 -18 -70 -4
-41 -2 -43 11 -13 14 36 17 36 49 4 40 -40 43 -64 9 -76 -18 -7 -16 -20 10
-49 19 -21 35 -63 35 -93 0 -30 13 -59 30 -66 21 -8 26 -27 17 -62 -10 -39 -7
-47 13 -35 16 10 21 8 13 -5 -7 -11 1 -47 17 -78 39 -74 8 -83 -126 -38 -103
34 -213 24 -260 -22 -15 -15 -39 -27 -54 -27 -36 0 -90 -55 -90 -91 0 -37 57
-37 147 1 120 50 373 1 373 -73 0 -58 -230 -197 -395 -238 -73 -19 -105 -36
-105 -59 0 -53 17 -57 109 -29 85 25 159 21 202 -13 33 -26 70 11 64 63 -4 40
5 50 47 55 50 6 52 2 64 -126 7 -72 24 -153 38 -178 102 -183 135 -252 122
-252 -8 0 5 -14 30 -31 48 -34 59 -74 19 -66 -14 2 -74 -19 -135 -48 -60 -29
-127 -58 -147 -64 -55 -17 -2 -74 65 -70 80 5 89 1 63 -29 -15 -18 -18 -56
-10 -100 9 -48 6 -72 -9 -72 -12 0 -22 -11 -23 -25 0 -14 -35 -64 -78 -113
l-77 -87 40 -68 c25 -41 31 -67 17 -67 -13 0 -18 -9 -11 -20 7 -11 -10 -30
-38 -43 -28 -12 -46 -30 -41 -39 5 -8 0 -21 -11 -28 -11 -7 -15 -21 -9 -31 6
-11 2 -19 -11 -19 -15 0 -15 -11 0 -39 45 -84 -6 -265 -64 -229 -9 6 -16 1
-16 -11 0 -11 -13 -21 -30 -21 -16 0 -30 -11 -30 -24 0 -19 -5 -19 -24 0 -13
13 -33 24 -45 24 -12 0 -7 -9 9 -20 27 -17 27 -20 0 -22 -16 -2 -57 -7 -90
-11 -161 -19 -410 -23 -410 -6 0 10 -20 19 -45 19 -32 -1 -37 -5 -18 -18 20
-12 15 -19 -19 -28 -25 -7 -58 -3 -72 9 -19 16 -26 16 -26 -1 0 -12 -22 -22
-50 -22 -27 0 -50 -8 -50 -18 0 -25 -130 -99 -193 -111 -61 -11 -88 -31 -41
-31 35 0 13 -99 -36 -160 -38 -47 -55 -103 -60 -197 -3 -48 -17 -95 -32 -105
-16 -10 -21 -18 -12 -18 9 0 3 -14 -15 -32 -17 -17 -27 -39 -21 -48 6 -10 -9
-31 -34 -49 -25 -17 -39 -31 -31 -31 7 0 4 -27 -8 -60 -12 -33 -29 -60 -39
-60 -10 0 -18 -14 -18 -30 0 -31 -39 -112 -63 -130 -7 -6 -16 -51 -19 -100 -3
-50 -14 -101 -24 -115 -13 -17 -11 -25 5 -25 13 0 18 -9 11 -20 -8 -12 30 -20
100 -20 107 0 110 2 89 41 -24 45 13 239 45 239 9 0 16 11 16 25 0 14 26 58
58 97 111 134 156 246 194 478 41 257 96 294 468 309 757 30 889 101 836 445
-24 149 13 246 92 246 58 1 88 149 41 201 -29 32 -27 38 27 70 59 35 59 35 57
216 -3 167 0 182 37 189 69 14 114 68 103 124 -6 27 -20 97 -32 154 -19 88
-120 339 -182 451 -10 19 -19 48 -19 65 0 16 -9 30 -20 30 -31 0 -24 44 21
138 55 113 37 667 -23 731 -10 10 -18 34 -18 52 0 49 -50 140 -161 292 -89
122 -99 147 -99 240 0 58 -9 110 -20 117 -11 7 -20 29 -20 49 0 44 -103 136
-170 153 -28 7 -57 37 -72 75 -35 89 -297 339 -412 393 -88 41 -135 57 -376
123 -100 27 -188 56 -240 78 -297 128 -966 171 -1225 79z m1621 -3039 c-4 -5
-22 7 -41 26 -31 30 -31 37 -5 53 28 17 68 -52 46 -79z"/>
<path d="M3361 2195 c-1 -52 -10 -95 -21 -95 -11 0 -20 30 -20 67 0 46 -9 66
-31 66 -21 0 -24 -6 -10 -20 31 -31 27 -99 -4 -81 -14 8 -7 -6 15 -32 l40 -47
-49 33 c-57 39 -90 44 -70 12 7 -11 16 -50 20 -85 4 -34 16 -134 27 -222 12
-100 13 -195 1 -258 -38 -196 -4 -287 76 -207 59 59 97 843 45 932 -14 23 -19
5 -19 -63z"/>
<path d="M3095 2106 c-19 -5 -35 -26 -35 -46 0 -21 -9 -43 -20 -50 -11 -7 -20
-52 -20 -100 0 -48 -10 -94 -22 -101 -16 -10 -14 -19 5 -32 22 -15 22 -22 -4
-42 -18 -15 -32 -64 -35 -125 -4 -94 -17 -282 -22 -315 -4 -26 -59 -16 -76 14
-12 21 -25 23 -46 10 -34 -22 29 -88 63 -67 22 13 21 -41 -2 -139 -10 -42 -10
-101 -1 -130 9 -29 28 -96 43 -149 21 -75 34 -94 64 -90 78 12 121 264 64 375
-28 53 -27 62 21 132 53 78 54 103 17 284 -8 39 -4 76 9 93 15 17 22 99 20
215 -4 214 1 242 42 261 36 16 -5 18 -65 2z"/>
<path d="M2660 1376 c0 -18 -11 -37 -25 -42 -20 -7 -20 -17 -1 -50 16 -27 24
-141 24 -339 -1 -396 23 -566 74 -523 70 58 115 263 68 310 -26 26 -32 199
-12 391 15 149 14 154 -30 160 -25 4 -47 23 -50 45 -7 51 -48 91 -48 48z"/>
<path d="M2510 1360 c7 -11 3 -20 -9 -20 -12 0 -31 -22 -41 -50 -10 -27 -29
-50 -41 -50 -12 0 -16 9 -9 20 7 11 -9 20 -38 20 -66 0 -84 -34 -43 -79 27
-30 33 -80 33 -267 -1 -224 31 -389 103 -523 12 -22 26 -112 33 -200 13 -170
56 -221 121 -142 28 34 -9 423 -42 443 -10 6 -17 44 -17 86 0 41 -9 125 -21
187 -13 73 -14 186 -2 328 18 219 14 267 -20 267 -11 0 -14 -9 -7 -20z"/>
<path d="M2218 1218 c-22 -124 -40 -166 -58 -138 -25 40 -82 -64 -79 -143 1
-37 -8 -103 -19 -147 -12 -44 -21 -132 -22 -195 0 -89 -7 -115 -30 -115 -16 0
-30 -5 -30 -12 0 -17 141 -227 162 -239 10 -6 18 -42 18 -79 0 -128 34 -156
125 -105 25 14 47 26 50 27 3 1 -13 54 -35 118 -46 132 -50 216 -18 374 17 83
17 138 -1 218 -13 60 -27 179 -31 265 -7 127 -23 217 -32 171z"/>
<path d="M480 125 c-92 -123 -92 -125 -31 -125 36 0 58 14 70 45 l18 45 2 -45
c0 -25 8 -45 18 -45 19 0 16 53 -7 106 -9 21 -6 46 7 59 13 13 23 30 23 39 0
36 -34 9 -100 -79z"/>
</g>
</svg>
