<?xml version="1.0" standalone="no"?>
<!DOCTYPE svg PUBLIC "-//W3C//DTD SVG 20010904//EN"
 "http://www.w3.org/TR/2001/REC-SVG-20010904/DTD/svg10.dtd">
<svg version="1.0" xmlns="http://www.w3.org/2000/svg"
 width="900.000000pt" height="888.000000pt" viewBox="0 0 900.000000 888.000000"
 preserveAspectRatio="xMidYMid meet">
<metadata>
Created by potrace 1.10, written by Peter Selinger 2001-2011
</metadata>
<g transform="translate(0.000000,888.000000) scale(0.100000,-0.100000)"
fill="#8b4513" stroke="none">
<path d="M0 4440 l0 -4440 1832 0 c1008 0 1828 4 1823 8 -10 9 -37 16 -250 67
-112 27 -169 44 -310 91 -201 67 -250 85 -380 142 -154 67 -460 228 -493 259
-7 7 -18 13 -23 13 -20 0 -235 143 -389 259 -172 129 -237 186 -459 398 -107
101 -296 313 -386 432 -22 29 -58 76 -80 104 -37 47 -124 177 -181 267 -12 19
-39 62 -59 95 -55 87 -214 402 -268 530 -128 306 -212 573 -262 835 -9 47 -23
117 -30 155 -51 247 -79 578 -72 835 12 469 77 857 217 1295 114 356 244 646
427 945 201 331 400 585 679 865 324 326 672 583 1094 807 109 58 362 174 440
201 25 9 83 30 130 48 47 17 105 37 130 45 153 45 197 58 305 85 180 44 279
75 283 88 3 8 -479 11 -1857 11 l-1861 0 0 -4440z"/>
<path d="M5296 8871 c-12 -19 33 -38 144 -61 85 -18 395 -106 490 -139 80 -27
134 -47 271 -100 94 -36 448 -214 559 -281 408 -246 777 -548 1051 -860 40
-46 92 -105 115 -130 47 -52 247 -322 316 -425 152 -231 326 -566 415 -800
146 -381 236 -741 298 -1195 17 -118 20 -130 35 -130 7 0 10 653 10 2065 l0
2065 -1849 0 c-1065 0 -1852 -4 -1855 -9z"/>
<path d="M4210 8781 c-143 -8 -268 -21 -385 -43 -33 -6 -82 -14 -110 -18 -78
-12 -166 -30 -215 -46 -25 -8 -53 -14 -64 -14 -16 0 -66 -14 -151 -42 -16 -5
-46 -14 -65 -18 -39 -9 -87 -25 -138 -46 -18 -8 -40 -14 -50 -14 -9 0 -26 -7
-36 -15 -11 -8 -28 -15 -37 -15 -10 0 -30 -6 -46 -14 -15 -8 -53 -25 -83 -36
-106 -42 -376 -173 -460 -222 -19 -12 -53 -31 -75 -42 -22 -12 -68 -41 -103
-64 -35 -23 -65 -42 -67 -42 -8 0 -144 -96 -260 -183 -239 -180 -485 -410
-671 -627 -90 -104 -304 -383 -304 -396 0 -3 -12 -23 -27 -43 -16 -20 -33 -45
-40 -56 -7 -11 -37 -60 -67 -110 -72 -119 -90 -152 -148 -270 -28 -55 -54
-107 -59 -115 -5 -8 -12 -22 -15 -30 -3 -8 -13 -31 -22 -50 -8 -19 -21 -50
-29 -67 -7 -18 -19 -48 -27 -65 -7 -18 -21 -53 -31 -78 -9 -25 -23 -60 -31
-78 -8 -18 -14 -41 -14 -50 0 -10 -7 -27 -15 -38 -8 -10 -15 -29 -15 -41 0
-12 -6 -37 -14 -55 -7 -18 -21 -60 -30 -93 -10 -33 -24 -80 -32 -105 -8 -25
-14 -54 -14 -65 0 -11 -6 -40 -14 -65 -17 -53 -34 -134 -45 -210 -4 -30 -13
-82 -19 -115 -29 -156 -36 -270 -39 -635 -3 -313 -1 -402 12 -476 8 -50 15
-111 15 -135 0 -24 7 -69 15 -99 8 -30 15 -72 15 -92 0 -20 5 -49 11 -65 6
-15 15 -50 19 -78 11 -67 46 -201 76 -295 8 -25 14 -52 14 -61 0 -9 7 -30 15
-45 8 -16 15 -39 15 -51 0 -12 4 -24 9 -28 5 -3 13 -20 17 -38 3 -17 12 -45
19 -62 7 -16 21 -50 30 -75 9 -25 23 -60 31 -78 22 -53 43 -100 58 -135 16
-37 113 -235 126 -257 5 -8 11 -22 15 -30 3 -8 11 -24 18 -35 7 -11 41 -69 77
-129 78 -130 78 -129 115 -186 39 -59 230 -315 269 -361 17 -20 54 -63 81 -95
105 -123 389 -397 515 -498 97 -78 197 -154 240 -182 25 -17 76 -51 113 -77
38 -26 70 -47 72 -47 2 0 23 -13 47 -29 24 -16 61 -39 83 -51 22 -12 54 -30
70 -40 33 -20 339 -173 393 -196 74 -31 108 -46 135 -60 16 -8 35 -14 44 -14
8 0 27 -6 41 -14 30 -15 81 -33 127 -46 39 -11 91 -29 133 -46 18 -8 44 -14
58 -14 14 0 35 -5 47 -12 12 -6 40 -15 62 -19 43 -8 98 -22 181 -45 28 -8 64
-14 81 -14 16 0 52 -7 79 -15 27 -8 68 -15 92 -15 24 0 73 -6 110 -14 243 -52
1026 -36 1292 26 25 5 70 14 100 19 82 12 160 30 205 45 23 8 52 14 65 14 14
1 36 7 50 15 14 8 37 14 51 15 15 0 40 7 55 15 16 8 37 15 47 15 10 0 28 5 40
12 12 6 35 15 52 19 34 8 85 26 130 45 17 7 50 20 75 29 93 36 152 62 310 139
153 75 278 142 301 162 8 8 19 14 23 14 5 0 28 14 53 30 24 17 46 30 47 30 5
0 230 151 236 159 3 3 24 19 47 35 24 16 53 38 65 50 13 12 43 37 68 56 47 36
50 39 165 141 114 102 303 296 400 410 63 74 145 178 178 227 21 30 57 80 80
111 54 71 111 157 137 206 6 11 19 34 30 50 11 17 24 39 30 50 6 11 26 47 44
80 34 60 125 241 152 303 26 59 44 101 60 139 9 21 23 51 30 66 8 16 14 36 14
46 0 9 7 26 15 37 8 10 15 27 15 36 0 10 6 32 14 50 17 42 35 94 46 133 5 17
13 44 18 60 10 29 27 91 52 185 6 25 15 65 19 90 5 25 13 65 19 90 20 82 34
164 42 235 4 39 13 102 19 140 12 81 31 383 31 500 0 117 -19 419 -31 500 -6
39 -15 102 -19 140 -8 71 -22 153 -42 235 -6 25 -14 65 -19 90 -10 62 -23 111
-74 285 -17 56 -24 79 -55 165 -6 19 -14 46 -17 60 -3 14 -12 34 -19 45 -8 11
-14 27 -14 36 0 10 -6 30 -14 46 -7 15 -20 44 -28 63 -8 19 -22 52 -31 73 -9
20 -23 52 -31 70 -27 61 -118 242 -152 302 -18 33 -38 69 -44 80 -6 11 -19 34
-30 50 -11 17 -23 36 -26 44 -13 25 -191 288 -204 301 -3 3 -34 43 -70 90
-166 221 -394 457 -670 694 -67 58 -346 262 -412 301 -9 5 -50 30 -90 54 -40
25 -84 51 -98 59 -14 7 -38 21 -55 32 -65 40 -416 210 -434 210 -5 0 -23 7
-40 15 -17 8 -45 22 -62 30 -17 8 -37 15 -46 15 -8 0 -27 6 -41 14 -30 15 -81
33 -127 46 -30 8 -62 18 -125 40 -19 7 -53 16 -75 20 -22 4 -53 12 -70 18 -40
14 -113 32 -150 38 -16 3 -59 11 -95 19 -130 27 -187 37 -275 45 -49 5 -112
13 -140 19 -68 13 -545 20 -725 12z m695 -415 c361 -42 496 -71 850 -182 61
-19 119 -39 130 -44 11 -5 56 -23 100 -41 389 -151 782 -394 1140 -702 71 -62
292 -280 355 -352 102 -115 268 -332 343 -447 152 -236 196 -316 347 -643 5
-11 19 -45 30 -75 11 -30 24 -64 29 -75 25 -60 35 -85 48 -130 8 -27 21 -70
28 -95 82 -265 122 -460 160 -782 30 -251 17 -757 -25 -993 -50 -282 -62 -337
-105 -485 -9 -30 -20 -68 -24 -85 -11 -40 -70 -215 -82 -240 -5 -11 -20 -51
-35 -90 -86 -234 -289 -596 -475 -851 -141 -193 -223 -288 -399 -464 -247
-249 -482 -433 -795 -625 -73 -44 -337 -180 -420 -215 -27 -12 -59 -25 -70
-30 -84 -38 -278 -107 -410 -145 -33 -9 -80 -23 -105 -31 -61 -18 -173 -44
-240 -55 -30 -5 -93 -16 -140 -24 -47 -8 -170 -24 -275 -35 -300 -33 -706 -19
-1010 35 -49 9 -103 18 -120 21 -131 22 -307 69 -520 139 -378 125 -767 332
-1111 591 -343 259 -640 568 -900 941 -121 174 -286 477 -374 688 -23 55 -48
114 -55 130 -7 17 -28 75 -45 130 -18 55 -36 109 -40 120 -28 68 -107 404
-126 540 -3 17 -11 73 -19 125 -39 260 -39 760 0 1020 8 52 16 109 18 125 15
98 80 384 111 490 158 534 435 1041 804 1470 292 340 593 593 987 833 121 74
418 221 535 266 52 20 104 41 115 46 40 17 235 79 380 120 91 26 265 60 450
89 39 6 129 16 200 22 72 6 132 13 135 16 10 10 500 -6 625 -21z"/>
<path d="M4165 8300 c-231 -16 -458 -58 -765 -142 -41 -11 -84 -24 -95 -28
-11 -4 -42 -16 -70 -25 -64 -22 -221 -82 -260 -100 -260 -116 -433 -209 -626
-336 -96 -63 -316 -228 -378 -283 -260 -231 -424 -405 -592 -626 -69 -91 -198
-283 -245 -365 -16 -27 -39 -68 -52 -90 -48 -84 -182 -365 -222 -465 -115
-290 -209 -655 -240 -935 -4 -38 -13 -117 -20 -175 -14 -124 -8 -671 9 -765 6
-33 20 -123 32 -200 21 -139 43 -245 74 -360 9 -33 20 -76 25 -95 16 -62 97
-293 124 -354 14 -32 26 -62 26 -67 0 -31 199 -416 278 -539 20 -30 56 -86 81
-125 196 -303 523 -658 826 -896 290 -228 652 -439 947 -554 51 -20 102 -40
113 -45 28 -13 185 -64 280 -90 44 -12 91 -26 105 -31 56 -20 335 -72 495 -92
395 -50 808 -37 1225 38 85 16 103 20 215 49 184 49 324 93 472 150 118 46
418 190 506 244 37 23 69 42 72 42 9 0 232 149 315 211 201 148 418 347 602
549 92 102 303 381 381 504 135 213 275 493 347 691 17 50 36 99 41 110 24 53
90 276 110 370 4 22 15 69 23 105 52 222 86 549 86 823 0 273 -35 611 -85 817
-9 36 -19 83 -24 105 -30 149 -176 573 -230 672 -6 10 -35 70 -65 133 -61 126
-124 239 -206 370 -87 138 -301 418 -396 519 -49 52 -90 97 -92 102 -6 15
-264 249 -357 324 -229 184 -493 351 -750 475 -199 96 -210 100 -320 140 -49
18 -99 36 -110 41 -11 5 -33 13 -50 18 -112 34 -210 61 -270 75 -38 10 -85 22
-102 27 -74 23 -367 66 -538 79 -146 11 -483 11 -650 0z m629 -406 c36 -23 41
-60 14 -100 -13 -19 -28 -34 -34 -34 -21 0 -22 -38 -3 -69 31 -51 58 -39 69
29 5 33 8 35 46 38 31 2 43 -1 48 -13 6 -16 2 -20 -66 -76 -21 -17 -38 -37
-38 -44 0 -24 31 -45 66 -45 26 0 34 -4 34 -18 0 -52 -72 -57 -126 -10 -30 26
-39 30 -52 20 -81 -58 -182 -25 -182 60 0 42 19 66 70 93 29 15 30 17 24 68
-6 47 -4 56 21 85 30 36 70 42 109 16z m-1053 -101 c21 -57 -2 -78 -50 -44
-16 12 -38 21 -49 21 -24 0 -52 -25 -52 -45 0 -22 44 -46 92 -52 52 -7 113
-36 122 -58 3 -9 6 -34 6 -55 0 -75 -71 -122 -180 -117 -43 2 -46 4 -60 44
-21 61 -5 71 51 33 52 -35 68 -37 103 -9 51 40 23 82 -64 95 -84 13 -130 53
-130 113 0 48 59 99 119 103 64 4 81 -1 92 -29z m2098 -169 c28 -14 51 -30 51
-37 0 -6 -11 -20 -24 -32 -21 -18 -25 -31 -30 -112 -4 -70 -3 -93 6 -93 21 0
138 123 138 145 0 33 18 44 52 34 62 -17 81 -62 31 -72 -16 -3 -44 -20 -63
-37 -19 -18 -55 -48 -80 -68 -25 -20 -64 -53 -86 -75 -33 -30 -47 -37 -64 -32
-18 6 -21 12 -16 33 3 15 10 87 16 160 10 119 9 137 -5 159 -18 27 -14 53 9
53 8 0 37 -11 65 -26z m-2699 4 c0 -6 -12 -36 -26 -67 -38 -80 -45 -109 -30
-124 17 -17 141 -64 189 -72 53 -8 51 -38 -5 -65 -56 -27 -86 -26 -90 2 -2 16
-19 31 -57 50 -58 30 -71 29 -71 -5 0 -30 26 -66 56 -77 35 -14 29 -37 -13
-57 -21 -9 -45 -20 -54 -24 -28 -13 -40 3 -28 37 11 26 7 40 -40 134 -38 78
-59 109 -82 122 -36 21 -33 29 21 57 57 29 74 28 67 -6 -7 -34 21 -113 39
-113 17 0 37 76 30 115 -13 67 -12 69 24 87 41 20 70 23 70 6z m-586 -381 c15
-19 26 -41 26 -51 0 -14 -8 -16 -63 -10 -61 6 -65 5 -90 -22 -56 -60 -17 -167
80 -221 30 -17 46 -16 82 5 37 20 56 62 52 113 -2 27 2 38 15 43 21 8 35 -4
59 -47 l18 -34 -34 -38 c-90 -99 -136 -123 -206 -110 -71 13 -163 129 -163
206 0 26 26 85 52 117 11 13 128 82 140 82 4 0 18 -15 32 -33z m3967 -44 c164
-82 149 -306 -25 -358 -78 -24 -152 6 -208 84 -28 39 -33 54 -33 103 0 47 5
64 31 100 56 80 156 111 235 71z m-1672 -89 c58 -9 147 -25 196 -36 50 -10
109 -23 133 -28 23 -5 51 -14 61 -20 11 -5 28 -10 39 -10 19 0 252 -84 322
-117 524 -242 940 -606 1233 -1082 99 -159 123 -209 110 -222 -19 -19 -57 -5
-73 26 -51 102 -174 294 -251 396 -163 213 -470 499 -654 609 -22 13 -69 42
-105 65 -85 55 -290 154 -425 205 -11 4 -38 15 -60 23 -51 20 -126 42 -190 57
-27 6 -77 18 -110 27 -319 80 -918 74 -1205 -12 -25 -8 -76 -22 -115 -31 -157
-39 -447 -163 -610 -262 -38 -24 -79 -48 -90 -55 -11 -7 -80 -56 -154 -111
-172 -126 -404 -355 -528 -521 -91 -123 -243 -365 -243 -389 0 -36 -71 -48
-78 -14 -5 24 159 293 254 421 65 85 193 235 254 297 196 195 494 407 740 526
130 63 358 150 470 179 36 9 88 23 115 30 48 13 80 19 265 49 127 21 562 21
699 0z m2146 -362 c22 -16 75 -91 75 -107 0 -13 -6 -15 -30 -10 -26 6 -40 0
-88 -36 -128 -95 -143 -122 -96 -178 34 -41 62 -40 127 5 86 59 117 91 117
123 0 15 3 31 6 34 11 11 40 -11 68 -52 35 -50 29 -76 -13 -66 -24 5 -38 -1
-82 -37 -105 -84 -147 -102 -202 -87 -39 11 -67 38 -97 96 -39 75 -31 86 158
244 14 12 22 30 22 49 0 29 14 38 35 22z m-4899 -34 c57 -33 86 -82 91 -151 4
-57 2 -66 -29 -111 -76 -114 -212 -128 -297 -30 -40 45 -51 73 -51 131 0 78
69 166 145 186 33 8 107 -5 141 -25z m2743 -152 c129 -45 287 -96 346 -111 33
-9 88 -30 122 -46 75 -37 188 -142 223 -207 18 -33 35 -50 56 -57 67 -22 104
-83 104 -172 0 -43 6 -64 21 -83 32 -41 99 -141 99 -149 0 -5 6 -14 14 -20 8
-6 16 -24 19 -39 4 -15 11 -49 17 -77 6 -27 14 -108 19 -179 8 -124 8 -131
-13 -165 -36 -58 -36 -65 0 -135 19 -37 34 -71 34 -76 0 -6 25 -61 55 -124 30
-62 55 -126 55 -142 0 -32 -25 -64 -50 -64 -10 0 -27 -8 -39 -17 -22 -20 -28
-73 -15 -149 6 -38 4 -44 -20 -59 -26 -17 -35 -49 -16 -60 29 -18 1 -85 -47
-110 -19 -11 -39 -28 -43 -40 -8 -22 1 -95 18 -136 14 -34 -7 -97 -40 -122
-29 -22 -120 -47 -170 -47 -20 0 -63 -7 -95 -15 -37 -10 -104 -15 -191 -15
-116 0 -138 -3 -161 -19 -40 -29 -78 -115 -85 -193 -8 -84 -25 -125 -92 -216
-29 -41 -61 -98 -71 -128 -16 -51 -16 -57 1 -111 10 -32 33 -80 52 -108 30
-45 31 -51 17 -67 -22 -25 -138 -58 -204 -58 -105 0 -240 73 -360 194 -60 61
-66 65 -98 59 -43 -7 -62 14 -54 61 4 24 -4 48 -30 96 l-34 65 9 100 c6 55 16
112 24 127 8 15 14 43 14 63 0 23 5 35 14 35 20 0 25 -21 19 -71 -5 -40 -4
-42 9 -25 9 12 17 15 21 9 4 -6 9 -75 11 -154 5 -177 25 -245 83 -279 19 -11
38 -18 42 -15 3 4 6 50 5 103 0 83 -4 105 -27 154 -25 55 -27 65 -26 208 0
148 1 151 25 166 13 9 24 24 24 33 0 9 5 23 11 31 7 10 8 -24 4 -112 -6 -134
6 -269 30 -328 7 -19 21 -74 30 -122 15 -78 15 -89 1 -117 -9 -16 -20 -33 -26
-36 -18 -11 -11 -33 13 -41 12 -4 56 -26 98 -49 89 -49 187 -66 212 -36 16 18
15 73 -3 125 -12 38 -5 142 11 152 5 3 9 13 9 22 0 9 20 47 44 83 44 68 116
254 116 302 0 52 113 168 183 188 18 5 92 11 164 14 73 3 144 10 159 15 14 6
43 10 65 10 22 0 47 4 57 10 9 5 30 15 46 20 27 10 28 13 23 56 -7 62 8 120
43 165 31 38 38 63 20 74 -20 13 -9 53 27 94 29 34 38 56 45 100 7 54 6 57
-22 81 -17 14 -30 28 -30 32 0 3 15 11 33 17 18 6 48 24 66 39 l34 28 -22 58
c-12 32 -28 71 -37 88 -20 38 -44 130 -44 167 0 16 -6 31 -14 34 -18 7 -43
-13 -48 -37 -3 -17 -12 -20 -93 -20 -73 -1 -90 2 -93 15 -2 10 17 21 65 37 37
13 82 34 99 47 18 14 37 25 42 25 4 0 19 11 31 24 l23 25 -25 25 c-40 40 -96
52 -156 32 -27 -9 -59 -16 -71 -16 -32 0 -21 32 17 51 18 9 38 21 45 27 25 19
74 22 131 7 32 -8 62 -13 67 -10 8 5 -12 85 -36 142 -8 17 -14 42 -14 56 0 35
-17 78 -42 104 -13 14 -18 28 -13 42 4 14 0 23 -13 30 -20 11 -62 123 -62 167
0 33 -25 85 -55 119 -26 27 -72 34 -81 11 -3 -8 4 -64 15 -124 12 -60 21 -137
21 -171 0 -83 -27 -196 -59 -246 -24 -37 -26 -49 -26 -155 0 -95 -3 -120 -18
-142 -27 -40 -17 -95 41 -228 12 -28 13 -41 3 -75 -28 -93 -31 -112 -25 -160
7 -62 -8 -105 -36 -105 -20 0 -24 10 -20 61 0 14 -9 57 -21 95 -24 75 -25 95
-8 165 10 39 9 55 -4 96 -9 27 -19 67 -23 89 -5 36 -3 42 21 58 17 11 24 23
21 33 -4 9 -1 22 6 31 9 10 12 41 10 91 -1 42 2 85 7 96 73 159 75 174 67 494
-4 161 -4 164 -30 188 -14 13 -26 30 -26 37 0 30 -179 154 -202 140 -5 -3 -15
1 -21 9 -7 8 -41 24 -77 35 -36 12 -87 28 -115 37 -231 76 -248 79 -440 79
-215 1 -215 1 -435 -116 -30 -17 -62 -36 -70 -43 -8 -7 -33 -22 -55 -33 -22
-11 -52 -34 -68 -51 -15 -17 -33 -31 -40 -31 -7 0 -20 -9 -30 -20 -9 -11 -23
-20 -30 -20 -31 0 -183 -168 -258 -285 -14 -22 -47 -66 -73 -98 -47 -58 -72
-95 -103 -155 -14 -27 -15 -37 -5 -52 14 -23 16 -52 3 -65 -5 -6 -21 -41 -36
-80 -14 -38 -30 -77 -36 -85 -5 -8 -25 -49 -45 -90 -19 -41 -41 -86 -48 -100
-8 -14 -19 -50 -25 -82 -10 -47 -9 -65 4 -110 9 -29 21 -61 26 -70 5 -10 9
-60 9 -111 0 -51 4 -97 10 -103 14 -14 59 -175 53 -190 -3 -7 6 -37 20 -66 33
-71 41 -117 37 -218 -4 -137 2 -260 16 -328 7 -35 65 -102 87 -102 7 1 30 23
51 50 21 27 47 52 57 55 9 3 20 12 23 20 7 20 42 19 50 0 4 -11 -2 -15 -24
-15 -27 0 -29 -3 -35 -47 -7 -58 -23 -152 -36 -213 -6 -25 -16 -89 -24 -143
-16 -109 -26 -129 -64 -125 l-26 3 -1 140 c0 135 -11 195 -34 195 -6 0 -24
-28 -40 -62 -46 -94 -72 -128 -98 -128 -41 0 -37 29 16 135 29 57 52 110 52
118 0 23 -16 29 -39 15 -36 -22 -44 1 -47 134 -2 68 -4 134 -5 147 -1 13 4 33
9 45 27 55 42 130 44 223 2 56 -1 105 -5 110 -24 23 -66 -119 -72 -243 -3 -69
-22 -104 -55 -104 -26 0 -32 25 -19 76 7 26 9 73 6 111 -5 47 -2 75 8 97 42
92 55 140 55 207 0 59 -3 70 -16 67 -10 -2 -25 -31 -40 -80 -33 -105 -64 -135
-84 -82 -8 21 -5 36 15 76 20 41 25 64 25 131 1 56 5 88 15 101 8 11 15 29 15
40 -1 31 -37 131 -46 129 -5 -1 -16 -3 -24 -5 -34 -7 -22 70 26 165 8 16 14
37 14 47 0 10 4 21 9 24 5 3 12 18 16 33 11 45 74 164 114 218 57 76 76 116
59 126 -21 14 -24 12 -58 -31 -29 -37 -70 -54 -70 -30 0 20 29 68 70 115 22
25 40 51 40 56 0 31 48 107 106 168 57 60 134 168 134 188 0 9 70 95 99 122
112 103 402 295 568 378 134 66 155 69 397 65 157 -3 188 -6 245 -26z m2591
-484 c22 -19 39 -47 51 -83 20 -59 16 -70 -32 -89 -44 -19 -60 0 -36 41 21 38
22 57 0 81 -41 46 -73 9 -73 -85 0 -88 -22 -132 -72 -145 -71 -19 -120 18
-157 117 -24 65 -16 94 30 110 17 6 36 11 40 11 14 0 10 -43 -6 -64 -31 -41
-3 -116 44 -116 36 0 51 31 51 108 0 73 1 76 36 108 44 42 78 44 124 6z
m-5615 -19 c51 -24 54 -51 12 -120 -19 -32 -46 -83 -60 -114 -13 -31 -32 -59
-40 -62 -18 -7 -22 -3 -30 33 -9 35 -206 130 -256 122 -31 -4 -33 -3 -26 19
14 47 42 94 58 97 10 2 17 -3 17 -11 0 -7 10 -23 23 -35 27 -25 184 -102 208
-102 26 0 59 53 59 94 0 20 -4 36 -10 36 -5 0 -10 14 -10 30 0 35 6 36 55 13z
m3416 -967 c-10 -11 -9 -31 4 -92 9 -42 18 -129 20 -193 3 -68 12 -138 21
-169 16 -49 16 -57 -1 -130 -20 -88 -29 -102 -60 -102 -30 0 -36 18 -23 71 8
31 8 61 0 108 -6 36 -8 84 -5 106 3 23 0 59 -6 80 -9 34 -8 42 5 52 9 7 14 18
11 26 -3 7 -1 33 3 58 5 26 4 51 -2 63 -7 13 -6 38 2 80 14 72 19 81 33 67 7
-7 6 -15 -2 -25z m-151 -444 c0 -84 -4 -119 -21 -162 -15 -40 -19 -67 -15
-100 19 -148 19 -149 3 -174 -9 -13 -17 -48 -19 -77 -2 -41 -7 -55 -20 -57
-29 -6 -39 29 -26 94 7 33 12 123 13 201 2 110 5 147 18 166 8 13 18 44 21 68
19 150 22 163 36 154 6 -4 10 -52 10 -113z m-3739 -183 c21 -246 75 -304 306
-326 104 -10 113 -37 15 -48 -31 -3 -89 -13 -127 -21 -88 -19 -147 -68 -165
-135 -16 -58 -30 -153 -30 -206 0 -37 -13 -63 -26 -51 -5 5 -31 153 -39 219
-7 57 -53 122 -104 148 -38 20 -108 36 -203 46 -65 7 -80 31 -25 39 17 3 65
10 106 17 41 6 88 17 105 24 67 29 126 119 126 195 0 57 31 181 44 177 6 -2
14 -37 17 -78z m6362 -14 c22 -223 72 -278 275 -309 155 -23 161 -39 21 -55
-103 -12 -192 -41 -220 -73 -37 -42 -58 -103 -69 -198 -13 -107 -18 -130 -30
-130 -13 0 -20 26 -31 126 -5 52 -19 114 -30 138 -22 51 -77 103 -117 112 -15
3 -34 8 -42 11 -8 2 -50 8 -93 13 -129 13 -131 42 -4 55 98 9 188 39 218 72
33 36 57 102 64 178 13 136 16 146 33 143 13 -2 19 -20 25 -83z m-2774 -196
c1 -181 -11 -239 -48 -239 -30 0 -33 27 -15 116 13 66 14 93 5 134 -20 93 -11
181 14 140 9 -15 27 0 21 17 -3 8 -3 20 1 26 15 24 22 -35 22 -194z m-159 37
c9 -29 8 -40 -6 -67 -18 -36 -15 -132 5 -152 18 -18 12 -51 -15 -80 -19 -21
-25 -35 -21 -55 25 -117 26 -138 13 -182 -11 -37 -18 -45 -36 -45 -21 0 -26 8
-43 78 -17 73 -18 81 -3 118 9 22 16 48 16 60 0 11 6 30 14 42 8 12 17 56 20
97 3 41 7 86 10 100 3 14 8 46 11 73 7 56 19 60 35 13z m-220 -298 c0 -11 8
-22 19 -25 18 -5 19 -14 18 -121 -1 -72 3 -141 12 -178 13 -56 13 -63 -5 -100
-10 -21 -23 -38 -29 -37 -22 4 -35 121 -32 305 1 102 5 184 10 181 4 -2 7 -13
7 -25z m-838 -189 c15 -30 25 -62 22 -71 -4 -13 4 -21 29 -31 18 -8 50 -31 69
-51 40 -41 67 -45 108 -16 16 11 49 24 75 29 50 9 72 29 82 75 6 29 6 29 15 6
5 -13 5 -36 -1 -54 -5 -17 -10 -80 -10 -140 -1 -134 -4 -146 -40 -146 -46 0
-55 20 -42 90 7 34 9 70 6 80 -7 22 -37 27 -53 8 -20 -25 -79 -154 -96 -210
-18 -59 -44 -81 -70 -58 -11 8 -13 38 -9 133 6 129 -6 207 -32 207 -22 0 -27
-15 -55 -169 -5 -29 -15 -59 -21 -67 -16 -20 -47 -17 -59 5 -15 29 -11 160 6
206 8 22 18 84 21 138 4 64 10 96 17 94 6 -2 23 -28 38 -58z m-1696 -407 c6
-4 15 -18 19 -32 15 -47 117 -255 168 -340 95 -160 274 -387 417 -530 66 -67
191 -176 233 -205 21 -14 43 -30 50 -35 7 -6 26 -22 42 -35 75 -63 349 -215
525 -293 55 -24 270 -97 325 -111 230 -55 292 -66 465 -82 131 -12 536 -5 590
11 19 5 69 14 110 19 90 11 169 28 192 41 10 6 27 10 38 10 22 0 223 64 252
80 10 6 23 10 28 10 27 0 307 140 428 214 250 152 543 418 720 654 73 96 262
390 262 407 0 1 18 42 41 91 22 48 45 98 50 111 6 17 16 23 39 23 45 0 40 -25
-38 -180 -92 -183 -189 -342 -292 -480 -112 -148 -387 -428 -490 -500 -19 -14
-39 -28 -45 -33 -36 -30 -164 -117 -238 -163 -147 -91 -481 -241 -611 -275
-17 -4 -58 -15 -91 -24 -279 -74 -584 -105 -863 -86 -237 15 -353 34 -552 87
-30 9 -72 20 -93 25 -21 5 -45 13 -55 18 -9 5 -46 19 -82 31 -82 28 -84 28
-213 89 -59 28 -110 51 -112 51 -2 0 -62 35 -132 77 -293 176 -559 409 -755
663 -14 19 -42 55 -62 80 -31 41 -84 122 -159 248 -56 95 -167 326 -167 348 0
18 6 24 23 24 12 0 27 -4 33 -8z m1334 -52 c0 -10 -4 -22 -10 -25 -5 -3 -10
-15 -10 -25 0 -10 -6 -25 -14 -32 -7 -8 -21 -28 -30 -46 -9 -18 -20 -32 -25
-32 -15 0 -51 -69 -44 -86 4 -10 -1 -17 -16 -21 -14 -4 -21 -13 -21 -30 0 -14
-13 -45 -30 -70 -16 -24 -30 -51 -30 -59 0 -9 -6 -28 -14 -42 -8 -15 -20 -48
-26 -74 -7 -26 -21 -55 -31 -64 -11 -9 -19 -25 -19 -35 0 -10 -4 -21 -10 -24
-5 -3 -10 -16 -10 -27 0 -12 -7 -30 -17 -40 -13 -15 -14 -23 -5 -43 10 -21 9
-30 -4 -50 -9 -15 -14 -35 -10 -48 7 -29 76 -67 121 -67 18 0 38 -7 45 -15 10
-12 8 -16 -15 -25 -41 -16 -82 -12 -97 9 -10 13 -25 18 -58 17 -43 -1 -45 0
-42 26 1 14 -2 29 -8 33 -17 11 -11 53 8 59 14 5 17 14 14 38 -3 22 0 35 13
44 10 7 15 20 12 29 -8 20 2 45 18 45 7 0 11 9 8 24 -3 14 8 49 26 86 17 34
31 70 31 80 0 26 152 320 207 401 27 38 54 81 61 94 15 28 32 25 32 -5z m1695
-140 c4 -6 21 -16 38 -24 18 -7 46 -25 62 -40 17 -14 35 -26 41 -26 8 0 76
-78 126 -145 58 -77 88 -121 88 -129 0 -5 10 -23 23 -40 12 -17 31 -49 42 -71
11 -22 23 -42 27 -45 4 -3 21 -35 38 -70 17 -36 44 -87 60 -115 73 -125 73
-128 23 -152 -50 -24 -172 -22 -209 2 -36 24 -20 33 61 37 l70 3 9 43 c9 43 3
64 -33 122 -5 8 -18 34 -28 57 -10 23 -24 43 -31 43 -8 0 -11 7 -7 19 8 27
-35 91 -58 85 -15 -5 -17 -1 -11 20 5 20 -10 45 -84 145 -49 66 -112 138 -141
161 -29 23 -57 52 -63 66 -6 13 -17 24 -23 24 -7 0 -20 9 -30 20 -10 11 -13
20 -7 20 6 0 14 -5 17 -10z m-1789 -816 c20 8 94 -11 94 -24 0 -22 -92 -47
-135 -36 -24 6 -36 36 -15 36 6 0 10 10 10 21 0 18 3 19 15 9 8 -7 22 -9 31
-6z m2098 -22 c11 -17 -14 -35 -60 -43 -73 -12 -188 -11 -260 3 -58 10 -65 10
-85 -8 -20 -18 -46 -19 -609 -22 -415 -2 -595 0 -609 8 -12 6 -21 20 -21 31 0
19 4 20 38 13 59 -12 1154 -15 1168 -3 7 6 93 14 191 18 98 4 192 9 210 9 17
1 34 -2 37 -6z m-1686 -10 c7 -1 11 -6 8 -10 -9 -15 -118 -35 -183 -34 -69 1
-147 27 -124 41 11 7 246 9 299 3z m-1299 -186 c34 -16 63 -74 56 -111 -3 -16
-15 -39 -27 -52 -34 -37 -98 -29 -98 12 0 29 16 41 34 26 9 -8 18 -7 31 3 17
12 17 14 0 39 -14 22 -25 27 -56 27 -60 0 -73 -27 -64 -140 l7 -90 -35 -35
c-25 -25 -44 -35 -66 -35 -100 0 -149 114 -70 159 24 13 29 13 54 -3 21 -14
24 -20 14 -32 -6 -8 -20 -14 -30 -14 -25 0 -24 -27 2 -40 48 -26 70 15 59 108
-10 77 1 120 38 156 47 44 91 51 151 22z m4298 -38 c13 -12 23 -29 23 -39 0
-41 10 -48 59 -42 40 5 51 2 77 -20 67 -56 65 -160 -4 -216 -46 -39 -89 -41
-126 -6 -29 27 -35 75 -11 95 19 16 35 5 35 -25 0 -46 62 -38 80 11 15 38 12
62 -10 84 -25 25 -62 26 -101 3 -26 -16 -31 -16 -40 -3 -5 8 -8 26 -5 39 10
60 -34 96 -79 67 -30 -20 -32 -47 -5 -71 28 -25 25 -45 -6 -45 -59 0 -82 74
-43 137 35 56 113 72 156 31z m-3953 -270 c26 -17 35 -30 36 -50 0 -24 -4 -28
-30 -28 -23 0 -35 -8 -54 -37 -13 -21 -51 -72 -84 -113 -38 -47 -57 -79 -51
-85 14 -14 11 -65 -3 -65 -7 0 -37 14 -66 31 -42 24 -53 35 -50 52 2 16 10 22
31 23 15 1 29 3 31 5 32 40 160 217 163 227 3 7 0 19 -7 27 -31 38 30 47 84
13z m3509 -88 c66 -52 85 -130 57 -237 -8 -29 -10 -56 -7 -60 9 -8 96 13 114
29 17 14 16 38 -1 38 -20 0 -29 16 -21 40 10 30 49 25 79 -11 30 -35 33 -65 8
-96 -18 -22 -82 -53 -112 -53 -9 0 -31 -13 -48 -30 -18 -16 -38 -30 -45 -30
-8 0 -22 18 -32 40 -17 37 -17 45 -4 98 21 85 18 175 -6 202 -24 27 -72 24
-92 -7 -13 -19 -12 -23 13 -46 24 -22 26 -28 14 -42 -21 -25 -53 -14 -75 26
-19 36 -19 38 0 78 32 73 107 101 158 61z m-3191 -167 c9 -10 18 -27 20 -38 3
-16 10 -19 39 -17 44 4 83 -25 99 -73 15 -46 -5 -101 -75 -210 -29 -44 -58
-90 -64 -103 -14 -27 -8 -52 12 -52 8 0 20 -7 27 -15 18 -22 -5 -45 -46 -45
-47 0 -64 22 -64 83 0 46 6 61 56 137 98 149 116 215 63 234 -43 15 -75 -18
-138 -140 -43 -84 -61 -109 -76 -109 -34 0 -30 45 11 121 90 166 88 162 73
190 -12 23 -11 27 6 40 25 18 39 18 57 -3z m2714 -141 c48 -35 54 -43 93 -115
52 -96 42 -183 -28 -244 -20 -17 -39 -22 -83 -23 -50 0 -62 4 -93 32 -20 17
-50 54 -66 82 -24 43 -29 62 -29 119 0 151 102 224 206 149z m-2029 -149 c29
-36 29 -54 0 -82 -34 -31 -57 -19 -50 25 7 42 -12 46 -58 12 -73 -54 -103
-166 -57 -215 32 -34 77 -30 127 12 43 35 71 37 71 5 0 -44 -94 -110 -158
-110 -36 0 -49 6 -84 39 -40 36 -42 42 -46 104 -3 53 0 75 17 110 59 122 180
173 238 100z m1422 -31 c9 -12 23 -39 31 -61 17 -53 4 -97 -51 -181 -24 -34
-38 -65 -33 -70 5 -4 32 -11 61 -15 46 -6 53 -4 63 14 9 17 8 22 -5 27 -24 10
-18 33 12 40 20 6 31 2 45 -16 53 -65 -21 -160 -103 -131 -40 14 -86 14 -94 1
-11 -17 -54 -11 -65 10 -15 28 -3 66 45 140 59 90 65 104 65 144 0 27 -6 40
-25 52 -47 31 -106 -6 -71 -45 18 -19 21 -41 7 -41 -5 0 -16 -3 -24 -6 -19 -7
-57 33 -57 59 0 25 45 86 74 98 34 15 104 4 125 -19z m-911 -55 c29 -27 31
-77 2 -77 -12 0 -31 12 -44 27 -20 24 -26 25 -40 14 -22 -19 -20 -60 5 -87 27
-29 19 -54 -17 -54 -41 0 -66 -35 -62 -88 2 -35 8 -47 30 -60 26 -15 29 -15
66 6 22 12 47 22 56 22 26 0 20 -46 -10 -69 -54 -43 -137 -36 -185 15 -20 22
-24 36 -24 89 0 60 2 66 37 102 30 31 35 41 26 56 -22 39 13 112 62 130 25 9
73 -4 98 -26z"/>
<path d="M4724 7836 c-9 -23 0 -51 16 -51 10 0 16 12 18 33 2 24 -1 32 -13 32
-8 0 -18 -6 -21 -14z"/>
<path d="M4656 7678 c-36 -51 -12 -91 51 -86 47 4 52 22 20 68 -28 43 -50 48
-71 18z"/>
<path d="M6393 7139 c-46 -30 -73 -78 -73 -132 0 -40 4 -49 37 -76 74 -61 169
-27 207 74 15 38 16 51 6 76 -31 73 -112 100 -177 58z"/>
<path d="M1909 6652 c-43 -39 -51 -103 -17 -152 26 -38 91 -80 124 -80 30 0
85 39 107 77 16 28 17 38 7 69 -34 101 -152 147 -221 86z"/>
<path d="M1280 4191 c-18 -5 -26 -15 -28 -34 -2 -15 -7 -27 -12 -27 -4 0 -11
-7 -14 -16 -4 -12 7 -29 35 -54 38 -34 46 -37 73 -29 17 5 32 9 32 9 5 0 44
72 44 80 0 5 -15 25 -34 44 -33 36 -49 40 -96 27z"/>
<path d="M7652 4200 c-13 -11 -35 -36 -49 -57 l-25 -37 38 -33 c49 -41 72 -41
112 0 40 41 40 54 2 95 -16 18 -30 37 -30 43 0 15 -23 10 -48 -11z"/>
<path d="M5628 1418 c-47 -67 -17 -205 55 -248 44 -27 63 -25 99 11 29 28 30
34 25 83 -6 57 -37 117 -84 160 -38 35 -67 33 -95 -6z"/>
<path d="M8977 4073 c-5 -9 -15 -65 -52 -298 -54 -335 -144 -676 -245 -935
-12 -30 -25 -67 -30 -81 -11 -36 -78 -185 -150 -333 -118 -243 -329 -574 -504
-792 -233 -291 -521 -572 -813 -794 -269 -203 -690 -446 -953 -550 -339 -134
-438 -165 -780 -246 -63 -15 -119 -31 -124 -36 -6 -4 819 -8 1832 -8 l1842 0
0 2040 c0 1268 -4 2040 -9 2040 -6 0 -12 -3 -14 -7z"/>
</g>
</svg>
